<?xml version="1.0" encoding="UTF-8"?>
<!DOCTYPE svg PUBLIC "-//W3C//DTD SVG 1.1//EN" "http://www.w3.org/Graphics/SVG/1.1/DTD/svg11.dtd">
<!-- Creator: CorelDRAW -->
<svg xmlns="http://www.w3.org/2000/svg" xml:space="preserve" width="3.81mm" height="3.81mm" version="1.1" style="shape-rendering:geometricPrecision; text-rendering:geometricPrecision; image-rendering:optimizeQuality; fill-rule:evenodd; clip-rule:evenodd"
viewBox="0 0 3.11 3.11"
 xmlns:xlink="http://www.w3.org/1999/xlink"
 xmlns:xodm="http://www.corel.com/coreldraw/odm/2003">
 <defs>
  <style type="text/css">
   <![CDATA[
    .fil2 {fill:none}
    .fil0 {fill:#F47327}
    .fil1 {fill:white;fill-rule:nonzero}
   ]]>
  </style>
   <clipPath id="id0">
    <path d="M-0 0l3.11 0 0 3.11 -3.11 0 0 -3.11z"/>
   </clipPath>
 </defs>
 <g id="!;>9_x0020_1">
  <metadata id="CorelCorpID_0Corel-Layer"/>
  <polygon class="fil0" points="-0,0 3.11,0 3.11,3.11 -0,3.11 "/>
  <g style="clip-path:url(#id0)">
   <g id="_105553246562336">
    <path id="_1" class="fil1" d="M6.9 1.78c-2.72,-0.52 -6.14,-0.22 -8.72,0.78 -0.05,0.02 -0.07,0.06 -0.04,0.09 0.02,0.03 0.09,0.04 0.14,0.02 2.53,-0.98 5.89,-1.28 8.54,-0.77 0.01,0.01 0.03,0 0.04,0 0.04,-0 0.07,-0.02 0.09,-0.05 0.03,-0.04 0,-0.07 -0.05,-0.08z"/>
    <path class="fil1" d="M1.42 0.93c-0.04,0 -0.07,0 -0.11,-0.01 -0.04,-0.01 -0.07,-0.03 -0.09,-0.05 -0.03,-0.02 -0.05,-0.05 -0.07,-0.08 -0.02,-0.03 -0.03,-0.07 -0.03,-0.1 -0,-0.04 -0,-0.07 0.01,-0.11 0.01,-0.03 0.03,-0.07 0.05,-0.1 0.02,-0.03 0.05,-0.05 0.08,-0.07 0.03,-0.02 0.07,-0.03 0.1,-0.03 0.04,-0 0.07,-0 0.11,0.01 0.04,0.01 0.07,0.03 0.1,0.05 0.03,0.02 0.05,0.05 0.07,0.08 0.02,0.03 0.03,0.07 0.03,0.1 0,0.04 0,0.07 -0.01,0.11 -0.01,0.03 -0.03,0.07 -0.05,0.09 -0.02,0.03 -0.05,0.05 -0.08,0.07 -0.03,0.02 -0.07,0.03 -0.1,0.03zm-0.02 1.96c-0.11,0.01 -0.2,-0.01 -0.27,-0.07 -0.08,-0.06 -0.13,-0.17 -0.14,-0.3 -0.01,-0.07 -0.01,-0.14 0,-0.23l0.11 -1.13 0.5 -0.05 -0.12 1.2c-0.01,0.03 -0.01,0.07 -0,0.11 0.01,0.05 0.02,0.08 0.04,0.1 0.02,0.02 0.06,0.02 0.11,0.02 0.03,-0 0.07,-0.02 0.1,-0.03 0.03,-0.02 0.06,-0.04 0.08,-0.07 0.05,-0.06 0.08,-0.14 0.1,-0.23l0.15 -0.02c-0.04,0.18 -0.1,0.33 -0.19,0.44 -0.07,0.09 -0.15,0.16 -0.25,0.21 -0.07,0.03 -0.14,0.06 -0.22,0.07z"/>
   </g>
  </g>
  <polygon class="fil2" points="-0,0 3.11,0 3.11,3.11 -0,3.11 "/>
 </g>
</svg>
